<svg id="Layer_1" data-name="Layer 1" xmlns="http://www.w3.org/2000/svg" viewBox="0 0 390.15 390.15"><defs><style>.cls-1{fill:#fbb03b;}.cls-1,.cls-2{stroke:#000;stroke-miterlimit:10;}.cls-2{fill:#0071bc;}</style></defs><circle class="cls-1" cx="195.08" cy="195.08" r="194.58"/><path class="cls-2" d="M585.14,681.8" transform="translate(-443.81 -474.35)"/><path class="cls-2" d="M562.28,525.73c-45.74,81.94-44.21,227.61-44.21,227.61,219.52,39,22.1-37.72,22.1-37.72Z" transform="translate(-443.81 -474.35)"/><polygon class="cls-2" points="159.63 70.89 89.5 320.61 141.34 200.95 159.63 70.89"/><polygon class="cls-2" points="254.14 119.01 141.34 200.95 177.9 137.22 254.14 119.01"/><polygon class="cls-2" points="148.96 200.95 211.46 281.59 141.34 247.78 141.34 200.95 148.96 200.95"/><polygon class="cls-2" points="223.66 82.6 177.9 320.61 211.46 251.68 235.85 180.14 267.86 265.99 285.66 302.63 289.97 311.51 223.66 82.6"/><polygon class="cls-2" points="274.27 207.46 289.97 311.51 324.27 94.3 274.27 207.46"/></svg>